<svg width="150" height="150" viewBox="0 0 150 150" fill="none" xmlns="http://www.w3.org/2000/svg">
<path fill-rule="evenodd" clip-rule="evenodd" d="M40.4972 65.9479C40.6468 66.0609 40.9064 66.1343 40.6468 66.3573C40.4605 66.6171 40.2375 66.8401 40.0894 67.138C39.9412 67.3991 39.8297 67.4726 39.6068 67.2876C39.9031 66.8034 40.1994 66.3559 40.4958 65.9465L40.4972 65.9479ZM115.139 104.934C115.139 105.044 115.176 105.118 115.176 105.231C115.251 105.083 115.251 105.008 115.289 104.934H115.139ZM115.139 105.267V105.231V105.267ZM107.564 119.775L101.101 83.9158C100.991 83.8805 100.843 83.8071 100.582 83.7323C100.657 83.8805 100.695 83.992 100.732 84.1036C100.915 84.0669 100.991 84.0668 101.065 84.0301C101.065 83.9934 101.065 83.9567 101.103 83.9172L107.566 119.78L107.564 119.775ZM100.88 75.8438C100.843 75.9539 100.843 76.0669 100.843 76.1784C100.843 76.0654 100.843 75.9525 100.882 75.8424L100.88 75.8438ZM100.916 76.5864C100.88 76.5864 100.88 76.5864 100.843 76.5468V76.5835C100.882 76.6202 100.882 76.6202 100.919 76.5835L100.916 76.5864ZM100.843 76.8828V76.6216C100.734 76.6584 100.623 76.6584 100.473 76.6965C100.66 76.7671 100.846 76.8066 100.846 76.88L100.843 76.8828Z" fill="#DD3735"/>
<path fill-rule="evenodd" clip-rule="evenodd" d="M129.77 67.8453C129.696 66.3941 129.66 64.9429 129.51 63.4931C129.251 61.521 128.991 59.5121 128.545 57.5781C128.211 55.9787 127.656 54.4527 127.097 52.9281C126.392 51.1423 125.686 49.3198 124.794 47.6089C123.346 44.8561 121.453 42.3998 119.707 39.8333C118.553 38.1958 117.068 36.8575 115.953 35.1833C115.323 34.2163 114.394 33.3989 113.466 32.6564C111.98 31.4635 110.42 30.3835 108.861 29.3431C107.673 28.5244 106.485 27.7437 105.22 27.0365C104.218 26.476 103.142 26.0299 102.102 25.5457C100.914 24.9881 99.762 24.3176 98.4257 24.0578C98.0898 23.9872 97.7935 23.8743 97.4591 23.7614C96.6053 23.4649 95.7883 23.1303 94.9331 22.8692C93.6349 22.4598 92.3719 21.977 91.0342 21.641C89.7387 21.3064 88.401 21.0848 87.0632 20.8971C85.5787 20.6782 84.0575 20.6006 82.5702 20.4552C81.605 20.3423 80.6397 20.2322 79.7112 20.1955C78.3001 20.122 76.8523 20.122 75.4411 20.0853C74.7355 20.0472 73.9933 19.9724 73.2877 20.0105C72.211 20.0472 71.1343 20.1588 70.0562 20.307C69.0176 20.4199 67.9776 20.6034 66.9757 20.7545C65.7523 20.9027 64.5274 20.9775 63.3011 21.1272C62.1496 21.2768 60.9615 21.4998 59.8114 21.6862C59.4021 21.761 58.9929 21.9092 58.5837 21.9826C57.6947 22.169 56.7661 22.2438 55.8743 22.5417C54.2797 23.0273 52.6809 23.5863 51.1216 24.1792C49.6724 24.7749 48.2612 25.4074 46.8882 26.1513C45.4771 26.9306 44.1393 27.8595 42.803 28.7545C41.5386 29.6099 40.277 30.5021 39.0493 31.4691C37.864 32.4008 36.7492 33.4412 35.6711 34.4831C35.0784 35.076 34.5944 35.7846 34.037 36.4538C33.1099 37.5337 32.1813 38.5741 31.2895 39.6908C30.5501 40.6225 29.8784 41.588 29.1728 42.5565C27.9127 44.2646 26.836 46.0885 25.8341 47.9124C25.4248 48.6563 25.0537 49.4003 24.6826 50.1428C24.1252 51.2581 23.5311 52.338 23.0118 53.4913C22.6392 54.2734 22.3429 55.1289 22.1199 55.9844C21.6021 57.8082 21.0813 59.6688 20.5987 61.4899C20.1528 63.1275 20.0413 64.8384 20.0061 66.5127C19.968 68.0006 20.1161 69.4518 20.2643 70.9397C20.3024 71.3124 20.0809 71.7585 20.5239 72.0549C20.3758 72.4643 20.4873 72.6902 20.7074 72.7608C20.4506 73.1701 20.8203 73.4327 20.6735 73.8054C20.6354 73.8788 20.7864 74.027 20.857 74.1386C20.857 74.2515 20.8217 74.3997 20.857 74.5112C20.8965 74.8458 21.0447 75.1804 21.0447 75.5531C21.0447 75.8128 21.2662 76.1107 21.341 76.3718C21.3777 76.4819 21.341 76.6683 21.2662 76.7431C21.0432 77.0029 21.0799 77.2259 21.4144 77.3755C21.6021 77.8583 21.5273 78.0814 21.4906 78.3072C21.564 78.6404 21.4525 78.7519 21.4906 78.8267C21.7869 79.4225 21.8998 80.0916 21.9351 80.7607C21.9351 80.9104 22.0099 81.06 22.0847 81.245C22.1214 81.245 22.0847 81.9508 22.0847 81.9508C22.2681 81.8407 22.4191 81.804 22.604 81.7292C22.7169 82.212 22.8269 82.6609 22.9751 83.0703C23.1614 83.3667 23.1614 83.5135 23.088 83.5502C23.2362 84.2194 23.3095 84.8518 23.5678 85.4842C23.5678 84.7784 23.4972 84.0725 23.3843 83.402C23.9036 83.5883 24.3495 83.7733 24.6473 83.7733C24.6854 83.6603 24.7221 83.5135 24.7602 83.4387C24.5372 83.2171 24.3509 82.8825 24.128 82.6595C24.2028 82.9559 24.128 83.0688 24.128 83.1818C23.9798 83.1055 23.7935 83.0307 23.6087 82.9559C23.7569 82.7724 23.905 82.5846 24.128 82.363C24.128 82.027 23.9445 81.7277 23.4224 81.7659C23.6454 81.6925 23.8683 81.5823 24.128 81.5061C24.5372 81.2845 24.0913 80.8751 24.0913 80.3542C24.128 79.7232 23.7569 79.0907 23.6454 78.4202C23.4591 77.3798 23.4972 75.817 23.3857 74.7752C23.1628 74.5889 22.9765 75.0717 22.9398 75.1098C23.0527 76.002 23.1628 76.8942 23.2362 77.7877C23.0146 77.0438 22.865 76.225 22.6802 75.3314C22.6421 75.5926 22.6054 75.7041 22.6054 75.8537C22.4219 76.0373 22.5687 76.2631 22.6802 76.5229C22.4205 76.41 22.1228 76.4495 22.1228 76.4495V77.4913C21.753 77.1186 21.643 76.8222 21.4553 76.5596C21.3819 76.2631 21.3424 75.9667 21.2718 75.6702C21.3424 75.4825 21.2718 75.371 21.2718 75.2608C21.2323 74.9983 21.1956 74.7018 21.159 74.3658C21.1956 74.3291 21.1223 73.7729 21.1223 73.7729C21.4186 73.8082 21.6063 73.8435 21.7911 73.8435C21.42 73.3635 21.6783 73.0643 21.8292 72.7664C21.904 72.6168 22.1637 72.5829 22.2385 72.4304C22.5348 71.8728 23.0188 71.4281 23.0188 70.7195C23.0188 70.3849 23.1317 70.0136 23.167 69.6777C23.2418 69.0452 23.3152 68.4128 23.3505 67.7804C23.4267 66.9616 23.3505 66.1428 23.5381 65.3621C23.8373 64.0634 24.2084 62.7604 24.6162 61.4574C24.9126 60.5257 25.2484 59.6364 25.6181 58.7047C26.1755 57.2535 26.6963 55.8022 27.4018 54.4273C28.4037 52.417 29.5552 50.483 30.67 48.5123C31.3756 47.2842 32.1178 46.1308 32.8996 44.9408C33.6405 43.7874 34.3813 42.5974 35.2379 41.5175C36.4274 39.9928 37.7271 38.5783 39.1749 37.3135C40.6609 35.9752 42.072 34.5988 43.668 33.3707C45.7452 31.767 47.9381 30.3553 50.2749 29.1272C52.1701 28.1249 54.1372 27.34 56.1057 26.596C57.3687 26.1132 58.7417 25.8902 60.0428 25.4808C61.5273 24.9966 63.0132 24.7749 64.5725 24.7368C65.5745 24.6987 66.5411 24.5872 67.543 24.4757C68.4348 24.4051 69.3253 24.3289 70.2919 24.2173C70.179 24.3656 70.1423 24.4404 70.1056 24.5138C69.6992 25.1095 69.2533 25.7052 68.8441 26.2996C68.5096 26.7838 68.1385 27.3047 67.8041 27.7875C67.2086 28.571 66.5764 29.3516 66.0204 30.1704C65.1666 31.3985 64.3863 32.6634 63.4944 33.8902C62.6054 35.0802 61.6388 36.1968 60.7103 37.3488C59.4854 38.9496 58.3339 40.5858 57.1091 42.1852C55.9943 43.7098 54.8089 45.1638 53.7308 46.6884C52.7656 48.0253 51.9104 49.4412 50.9819 50.8148C49.6089 52.8617 48.2344 54.8691 46.8614 56.9161C45.7833 58.4774 44.7066 60.0034 43.5932 61.5661C43.5184 61.6791 43.4069 61.713 43.2969 61.7878C43.0005 62.2706 43.0005 62.5317 42.8876 62.7548C42.5913 63.3124 42.2949 63.87 41.9591 64.3923C41.7728 64.6888 41.5132 64.9485 41.2902 65.2464C41.2535 64.8003 41.8829 64.5773 41.5866 64.0182C41.4031 64.3175 41.2154 64.5773 41.0306 64.8751L40.5847 65.7645C40.7328 65.8774 40.9939 65.9522 40.7328 66.1739C40.6199 66.3616 40.5099 66.5833 40.3984 66.771C40.5847 66.6581 40.6947 66.548 40.8076 66.3983C40.8076 66.8077 40.5847 67.1409 40.3984 67.4754C40.2502 67.7719 39.8791 67.9977 39.6194 68.2194C39.6561 68.2575 39.9158 68.369 39.9539 68.4057C40.2883 68.2928 40.3998 68.1093 40.4379 68.2194C40.5508 68.0712 40.6609 67.9596 40.6975 67.8481C40.8443 67.4754 41.0673 67.179 41.4384 67.0293C41.588 66.9545 41.698 66.843 41.8095 66.7329C42.9243 65.5781 44.0758 64.4629 45.0777 63.2347C46.6384 61.336 48.0496 59.3667 49.5369 57.4327C50.1663 56.614 50.9099 55.7952 51.5774 55.0131C51.6875 55.8686 51.6141 56.686 51.5774 57.4694C51.4645 58.8444 51.3911 60.2222 51.2811 61.6339C51.243 62.1915 51.2811 62.7491 51.243 63.3082C51.243 63.4564 51.1301 63.5679 51.1301 63.7175C51.1301 64.0888 51.243 64.4982 51.243 64.8709C51.1301 66.2473 50.9805 67.5855 50.869 68.9619C50.8309 69.2584 50.9791 69.5577 51.0525 69.8188C50.869 71.8262 51.2782 73.948 50.9424 76.0683C51.202 75.6589 51.2768 75.3992 51.2768 75.1394C51.3121 74.9164 51.2768 74.6933 51.2768 74.4336V74.0609C51.3121 73.3904 51.4603 72.6845 51.3869 72.014C51.3121 71.27 51.3121 70.5642 51.4617 69.8569C51.5365 69.5605 51.425 69.1878 51.6113 68.8151V69.3727C51.5746 71.4902 51.6494 73.612 51.353 75.7323C51.3149 75.9187 51.4659 76.2547 51.0567 76.2165C50.7208 76.8857 51.1301 77.3699 50.7604 77.7412C50.6841 77.816 50.8309 78.1506 50.869 78.3736C50.7194 78.8211 50.7194 78.8211 50.9424 78.8578C50.9791 79.6766 51.0553 80.4191 51.0906 81.2012C51.6832 79.7895 51.3869 78.3355 51.6494 76.8843C51.6861 77.48 51.7242 78.0757 51.6861 78.7053C51.6861 79.6752 51.6494 80.604 51.6127 81.571C51.6127 81.7574 51.5746 81.9437 51.5379 82.1301C51.425 82.6524 51.3897 83.1719 51.2034 83.6547C51.0553 84.0274 51.1301 84.5864 51.1301 85.0311V86.447C51.2782 87.0794 51.092 87.414 51.2034 87.7853C51.0906 88.1594 51.0553 88.2709 51.0906 88.3824L51.2034 88.94C51.9471 88.8652 51.6127 89.4242 51.909 89.7207C51.6861 90.02 51.7608 90.1301 51.7608 90.2811C51.7608 90.6157 51.7256 90.9135 51.6875 91.2481C51.6875 92.1036 51.6508 92.9591 51.6508 93.7778C51.6508 93.8908 51.6875 93.9995 51.6875 94.111C51.6875 94.1872 51.6508 95.1556 51.6508 95.1556C51.7256 95.2658 51.6508 95.3773 51.5379 95.4888C51.5026 95.4888 51.3911 90.7639 51.3911 90.7639H50.8337C50.7604 92.9944 50.9466 95.0032 50.5374 97.0882C50.0915 97.1235 49.9447 97.1983 49.4593 97.1983C48.3078 97.1983 47.1563 97.1983 46.0048 97.235C44.6304 97.235 43.2954 97.2718 41.9196 97.2718C41.2535 97.2718 40.548 97.348 39.8791 97.348C38.9872 97.348 38.0587 97.235 37.1697 97.235C35.7938 97.235 34.4575 97.348 33.0831 97.3847C32.0812 97.4214 31.0792 97.4214 30.0773 97.4595C29.407 97.4948 28.7368 97.5301 28.0707 97.6063C27.7744 97.643 27.5133 97.7545 27.1422 97.8661C27.0293 97.8661 26.771 97.8294 26.5495 97.8661C26.1755 97.9409 25.8439 98.1625 25.47 98.2388C24.9126 98.3517 24.7644 98.4985 24.8378 99.0575V99.4288C24.8011 99.5022 25.6562 99.3159 25.6562 99.3159C25.58 99.3159 25.5434 99.5389 25.4305 99.7253C25.7296 99.6123 25.9145 99.5389 26.1008 99.4655C26.6582 99.7267 27.1408 99.5784 27.5853 99.6914C29.0331 100.061 30.5176 100.214 32.0021 100.359C32.9688 100.434 33.8973 100.472 34.8625 100.507C36.2355 100.582 37.61 100.657 38.983 100.657C40.1345 100.657 41.2493 100.544 42.398 100.544C43.9925 100.544 45.5928 100.617 47.1888 100.657C47.5232 100.657 47.8943 100.617 48.2655 100.617H50.9748C53.3907 100.544 55.8037 100.504 58.2182 100.434C59.5941 100.394 61.0052 100.321 62.3782 100.283L66.6116 100.17C68.2457 100.133 69.8798 100.133 71.4772 100.099C72.7021 100.099 73.8903 100.057 75.118 100.022C76.4896 99.985 77.9007 99.8735 79.2752 99.8001C80.0188 99.762 80.7625 99.6871 81.5048 99.6137C82.3966 99.5403 83.3251 99.4302 84.2141 99.3921C85.5519 99.3159 86.9264 99.2792 88.2641 99.2043C89.9349 99.0942 91.6057 98.946 93.3131 98.9079C94.8739 98.8345 96.4699 98.8712 98.0306 98.8345C99.405 98.7964 100.779 98.7215 102.191 98.6848L104.533 98.5719C104.533 98.5719 106.091 98.5352 106.871 98.459C108.208 98.3856 109.544 98.2373 110.882 98.2006C111.734 98.1625 112.589 98.2006 113.443 98.1625C114.816 98.1258 116.227 98.0496 117.602 98.0496C118.119 98.0496 118.677 98.1258 119.346 98.1625C119.049 98.4237 118.863 98.5719 118.64 98.7583C118.788 98.795 118.937 98.8712 119.086 98.9446C118.863 99.0928 118.677 99.1281 118.493 99.1281C118.417 99.3159 118.342 99.3907 118.268 99.7634H118.937C118.677 99.7634 118.454 100.098 118.194 100.321C117.898 100.245 117.637 100.321 117.489 100.73C117.748 100.877 117.712 100.989 117.675 101.14C117.229 101.287 116.895 101.436 117.082 101.919C116.931 101.992 116.746 102.067 116.56 102.179C116.377 102.475 116.041 102.55 116.114 102.959C116.264 102.995 116.411 103.072 116.523 103.106C116.337 103.181 116.152 103.293 115.966 103.366C115.299 103.775 115.596 103.962 115.745 104.148C115.632 104.223 115.522 104.296 115.41 104.334C115.483 104.669 115.594 104.744 115.632 104.744C115.483 104.854 115.297 105.004 115.074 105.19C114.961 105.524 114.813 105.673 114.665 105.896C114.517 106.119 114.442 106.418 114.256 106.64C113.477 107.497 112.919 108.503 111.918 109.171C111.545 109.432 111.212 109.767 110.878 110.103C110.209 110.734 109.615 111.441 108.909 112.037C107.982 112.817 107.018 113.523 106.013 114.23C104.79 115.086 103.565 115.941 102.339 116.76C101.67 117.205 100.928 117.539 100.222 117.949C99.5165 118.358 98.8476 118.731 98.1421 119.139C97.6961 119.435 97.2869 119.845 96.8043 120.07C95.5794 120.593 94.2784 121.037 93.0168 121.522C91.7891 122.044 90.9001 122.489 89.9716 122.823C89.1178 123.12 88.226 123.345 87.3356 123.529C87.0392 123.605 86.7034 123.529 86.3689 123.567C85.7368 123.68 85.106 123.83 84.4738 123.903C82.8397 124.126 81.2056 124.276 79.5729 124.499C78.6063 124.612 77.6778 124.795 76.7126 124.908C76.0451 124.945 75.3395 124.871 74.6706 124.871C74.188 124.871 73.6687 124.984 73.1847 124.91C72.4058 124.797 71.6254 124.613 70.845 124.464C70.6616 124.427 70.3991 124.351 70.2524 124.427C69.956 124.576 69.6936 124.353 69.3958 124.427C69.2124 124.465 69.0261 124.314 68.8398 124.314C68.6902 124.279 68.504 124.353 68.3177 124.314C67.9085 124.204 67.5388 124.056 67.09 124.092C66.6483 124.129 66.201 123.906 65.7212 123.796C65.0509 123.646 64.423 123.499 63.7513 123.348C63.493 123.273 63.2715 123.162 63.0104 123.014C62.0438 123.014 61.4116 122.977 60.8175 122.753C60.2982 122.569 59.8156 122.308 59.2582 122.383C59.1115 122.419 59 122.346 58.849 122.346C58.7361 122.196 58.6274 121.899 58.5174 121.899C57.7751 121.937 57.3292 121.306 56.697 121.118C56.364 121.005 56.1043 120.634 55.7699 120.522C54.9514 120.188 54.2854 119.482 53.3568 119.37C53.0605 119.332 52.7642 119.184 52.4283 119.074C52.5412 119.221 52.6118 119.332 52.7247 119.444C51.648 118.921 50.646 118.328 49.6427 117.769C49.496 117.733 49.3845 117.586 49.273 117.51L48.2711 116.84C47.7137 116.953 47.4907 116.728 47.3398 116.654C46.3379 115.948 45.1878 115.501 44.2211 114.72C43.8119 114.384 43.3321 114.161 43.0358 113.752C42.5137 113.119 41.8829 112.673 41.1773 112.302C40.6213 112.005 40.102 111.669 39.5827 111.335C39.3217 111.149 39.0606 110.926 39.0606 110.516C39.0606 110.255 38.9506 109.994 38.6161 110.143C38.468 109.92 38.3198 109.661 38.1335 109.586C37.6876 109.402 37.3913 109.064 37.0568 108.767C36.7224 108.471 36.4641 108.061 36.0549 107.913C35.3112 107.617 34.8653 106.984 34.4208 106.463C33.3794 105.235 32.4509 103.894 31.4857 102.595C31.4109 102.482 31.2627 102.407 31.1512 102.296C31.2994 102.705 31.4857 103.04 31.6705 103.411C31.3008 103.263 31.0411 103.002 30.8182 102.742C30.7801 102.78 33.3794 107.058 33.3794 107.058C33.6052 107.392 33.7886 107.728 34.0116 108.063C33.4542 108.099 33.0831 107.801 32.8968 107.467C32.5638 106.874 32.1912 106.501 31.449 106.578C31.3756 106.315 31.3008 106.017 31.2655 105.759C31.1145 105.759 31.0045 105.759 30.7434 105.721C31.2655 106.539 31.71 107.245 32.1926 108.064C32.0049 107.951 31.8963 107.878 31.8187 107.841C32.4861 108.547 32.9688 109.44 33.8225 109.888C34.0088 110.742 34.974 111.151 35.1969 111.97C35.0135 111.932 34.8611 111.895 34.6748 111.857C34.3785 111.486 34.044 111.115 33.711 110.705C33.7844 110.965 33.8945 111.188 34.044 111.374C34.49 111.932 34.8992 112.49 35.4185 112.974C35.6048 113.163 35.8644 113.238 35.8644 113.572C36.1607 113.721 36.2736 113.756 36.3837 113.756C36.4599 113.982 36.3484 114.316 36.7929 114.242C37.0893 114.799 37.3856 114.799 37.7948 114.614C38.2789 115.098 38.5399 115.137 38.8729 114.84C38.8729 115.024 38.9096 115.21 38.9096 115.36C39.0578 115.285 39.0225 115.173 39.0225 114.987C39.206 115.135 39.3189 115.21 39.3922 115.283C39.7634 115.806 40.0978 116.288 40.6171 116.698C41.3227 117.294 41.9549 117.926 42.6209 118.484C43.922 119.564 45.3726 120.457 46.819 121.275C48.6027 122.28 50.3116 123.358 52.1306 124.324C54.3206 125.479 56.6603 126.261 59.0734 126.818C59.9652 127.005 60.8189 127.189 61.7122 127.411C62.4883 127.637 63.2701 127.972 64.0504 128.156C65.2386 128.418 66.4635 128.641 67.6516 128.862C67.9099 128.9 68.1738 128.939 68.4701 128.975C68.8017 129.05 69.2095 128.9 69.2843 129.013C69.4706 129.31 69.6188 129.16 69.8417 129.123C70.1014 129.049 70.3991 129.049 70.6955 129.049C71.7355 129.085 72.7374 129.308 73.7774 129.235C74.0032 129.235 74.3362 129.047 74.5225 129.419C74.8555 129.27 75.0418 129.27 75.1899 129.235C75.2295 129.568 75.1899 129.568 75.1194 129.605C75.0432 129.642 74.9317 129.68 74.7835 129.791C76.1199 130.051 77.3828 130.088 78.4948 129.791C80.4281 129.939 82.0989 129.716 83.6963 129.159C83.8444 129.345 83.9559 129.605 84.1789 129.234C84.2523 129.121 84.4385 129.083 84.5881 129.046C84.9211 128.971 85.3304 128.823 85.6267 128.933C85.9625 129.046 86.074 128.749 86.3323 128.749C86.7796 128.749 87.1874 128.711 87.5966 128.636C87.8196 128.6 88.0426 128.488 88.3022 128.413C88.0059 128.262 87.7095 128.226 87.4837 128.226C87.9311 128.003 88.3389 127.816 88.7481 127.633C88.6733 127.743 88.5985 127.891 88.4518 127.891H88.9697C88.8568 127.891 88.7086 128.226 88.5238 128.449C89.8587 128.114 91.0836 127.816 92.2731 127.517C91.8639 126.738 92.7177 126.999 93.0154 126.551C92.6443 126.664 92.2731 126.774 91.9006 126.848C93.1636 126.217 94.4632 125.659 95.7248 125.102C95.5413 125.325 95.3156 125.436 94.9839 125.624C95.2069 125.659 95.3551 125.659 95.4665 125.695C96.0592 125.882 95.9125 125.325 96.0973 124.989C96.8029 124.989 97.0992 124.879 97.4337 124.766C97.8048 124.653 98.1759 124.543 98.5485 124.394C99.1411 124.135 99.6985 123.801 100.293 123.505C100.406 123.465 100.589 123.505 100.739 123.505C101.148 123.242 101.295 123.019 101.406 123.056C101.928 123.131 102.295 122.943 102.445 122.463C102.704 122.275 102.891 122.127 103.075 122.014C103.891 121.568 104.67 121.122 105.488 120.676C105.785 120.676 105.934 120.676 106.008 120.638C106.493 120.412 106.939 120.155 107.384 119.894C107.271 119.857 107.012 119.71 107.012 119.71C107.382 119.634 107.492 119.597 107.718 119.523C108.607 118.478 109.835 117.772 110.762 116.953C111.171 116.917 111.171 116.805 111.171 116.732C111.318 116.545 111.467 116.322 111.651 116.173C112.469 115.429 113.358 114.796 114.102 114.016C115.179 112.934 116.219 111.818 117.184 110.664C118.073 109.623 118.968 108.582 119.71 107.429C120.75 105.829 121.64 104.192 122.569 102.516C123.238 101.328 123.832 100.137 124.502 98.9474C124.573 98.8345 124.724 98.6863 124.835 98.6863C125.837 98.5733 126.842 98.5027 127.807 98.3898C128.03 98.3531 128.29 98.2063 128.513 98.0934C128.4 97.907 128.326 97.684 128.216 97.4976C128.067 97.2718 127.844 97.0882 127.694 96.8624C127.547 96.6788 127.436 96.453 127.324 96.2313C127.211 96.0478 127.101 95.8982 126.99 95.709C126.764 95.2996 126.543 94.8903 126.355 94.447C126.318 94.334 126.242 94.1505 126.282 94.0376C126.95 92.5878 127.21 91.0251 127.841 89.5739C128.472 88.086 128.659 86.4117 128.956 84.8123C129.215 83.2877 129.365 81.763 129.548 80.2384C129.661 79.1599 129.809 78.1181 129.845 77.0396C130.07 75.3286 129.994 73.7278 129.958 72.1269C129.921 70.7152 129.845 69.264 129.774 67.8495L129.77 67.8453ZM36.5996 113.637C36.34 113.341 36.117 113.005 35.8573 112.708L35.9702 112.596C36.3752 113.043 36.7845 113.489 37.1923 113.973C36.9693 113.86 36.7097 113.787 36.5996 113.637ZM37.1923 113.973C37.3052 113.935 37.4181 113.935 37.5281 113.899C37.641 114.085 37.7144 114.308 37.8245 114.531C37.3052 114.493 37.0455 114.27 37.1937 113.973H37.1923ZM75.8151 129.337V129.224C76.5206 129.15 77.1881 129.075 77.8937 129.002V129.111C77.1881 129.224 76.5206 129.294 75.8151 129.334V129.337ZM85.1709 128.37C84.653 128.483 84.0956 128.557 83.5763 128.632C83.39 128.669 83.1671 128.855 83.0937 128.519C83.0189 128.557 82.9441 128.557 82.8707 128.596C83.0542 129.152 83.5015 128.706 83.8727 128.929C83.0542 129.042 82.2781 129.115 81.4963 129.225V129.152C81.7221 129.115 81.9803 129.077 82.2019 129.039V128.929C81.8321 128.891 81.461 128.854 81.0871 128.854C80.9784 128.854 80.8288 129.003 80.7174 129.04C80.5692 129.077 80.421 129.115 80.2347 129.115C79.604 129.152 78.9732 129.152 78.3777 129.188C78.3396 129.188 78.2648 129.152 78.2281 129.152V129.039C80.7159 128.706 83.1671 128.371 85.6549 128.036C85.693 128.11 85.693 128.185 85.7297 128.258C85.5067 128.258 85.3586 128.336 85.1723 128.371L85.1709 128.37ZM85.7297 128C86.5849 127.887 87.3666 127.813 88.1823 127.703C86.4748 128.186 85.9174 128.26 85.7311 128H85.7297ZM53.3851 52.8914C54.5704 51.2538 55.7981 49.6163 56.9863 47.9434C57.3574 47.4564 57.6537 46.9355 58.0249 46.4527C58.1378 46.3031 58.2859 46.2297 58.4708 46.08L58.4341 46.0094C58.5823 45.8217 58.7304 45.6706 58.8052 45.5238C58.9943 45.2274 59.1058 44.8914 59.254 44.5568C59.2907 44.4862 59.4021 44.4114 59.4021 44.4114C59.9243 44.6712 59.9243 44.115 60.1077 43.9272C60.4422 43.5545 60.7766 43.1465 61.0729 42.7739C61.2959 42.4774 61.5188 42.2162 61.7051 41.8817C61.7418 41.7687 61.6303 41.5852 61.5922 41.4342H61.4822C61.5951 41.3608 61.7051 41.2507 61.8166 41.1744C61.8533 41.1744 61.8533 41.1744 61.89 41.1377C62.1129 40.8017 62.3359 40.4672 62.5589 40.1693C63.0034 39.5764 63.486 38.9807 64.0053 38.4612C63.9319 38.6447 63.8571 38.8324 63.7823 38.9807C63.8204 38.9807 63.8204 39.0188 63.8571 39.0188C64.303 38.4231 64.7856 37.8654 65.2315 37.2683C65.1934 37.233 65.1568 37.1949 65.1187 37.1949C64.9352 37.3812 64.7856 37.5676 64.5994 37.7539C64.5627 37.7158 64.526 37.6791 64.4865 37.6791C64.8604 37.1949 65.2315 36.7121 65.6013 36.1545C65.6761 36.2674 65.7508 36.4142 65.8976 36.7121C66.0486 36.3408 66.1968 36.0811 66.3068 35.8199C66.1968 35.9329 66.0486 36.043 65.9371 36.1559L65.8242 36.043L66.4931 35.0407C67.1987 34.0356 67.9042 32.9937 68.6098 31.9886C68.8709 31.6174 69.2025 31.3195 69.4283 30.9468C70.1338 29.5351 71.2486 28.4171 72.101 27.1155C72.2872 26.8558 72.5469 26.6327 72.7698 26.4097C72.9533 26.1838 73.1043 26.26 73.2524 26.4464C74.2544 27.7112 75.2563 29.0128 76.2582 30.2777C77.0032 31.2094 77.7455 32.0987 78.4511 33.0671C79.3048 34.2586 80.1219 35.4487 80.977 36.6387C81.9422 38.0151 82.9074 39.3915 83.836 40.8032C85.2471 42.8882 86.5834 44.9718 87.9946 47.0541C89.0346 48.5787 90.0746 50.068 91.0765 51.5926H89.1799C87.4358 51.5573 85.6521 51.4091 83.9079 51.4825C81.5316 51.5954 79.1185 51.8552 76.7422 52.0415C73.7336 52.3027 70.6884 52.338 67.6827 52.338C66.6032 52.338 65.5265 52.489 64.4512 52.5639C63.1501 52.6373 61.8872 52.7121 60.5875 52.7474C59.0635 52.8236 57.5818 52.8603 56.0578 52.8984C55.2026 52.9351 54.3122 52.8984 53.3837 52.8984L53.3851 52.8914ZM95.9774 70.0009V70.3369C95.9407 70.3369 95.904 70.375 95.8292 70.375C95.681 69.8527 95.5329 69.2937 95.3466 68.7728C94.9755 67.6928 94.5662 66.6129 93.8974 65.6473C93.1523 64.6069 92.4862 63.5298 91.7411 62.4498C91.5577 62.1887 91.2952 61.9656 91.0723 61.744C90.2919 60.8871 89.5116 59.9935 88.5096 59.3625C87.0237 58.4308 85.5011 57.6501 83.867 56.9796C83.4211 56.7961 83.0133 56.5702 82.5688 56.3105H83.4578L89.8079 56.1975C91.1823 56.1622 92.5201 56.1622 93.8931 56.0874C94.2262 56.0874 94.4124 56.2003 94.5987 56.4968C94.9317 57.0544 95.2662 57.612 95.6373 58.171C95.6754 58.2445 95.7502 58.3546 95.7502 58.4675C95.7502 59.2863 95.7502 60.1418 95.7869 60.9605C95.8221 61.816 95.8998 62.6348 95.9336 63.4903C95.9336 64.3457 95.8588 65.2379 95.8969 66.1301C95.935 67.3964 95.9717 68.6994 95.9717 69.9981L95.9774 70.0009ZM56.0197 57.5443C57.7652 57.4694 59.4346 57.3579 61.1449 57.2831C62.4784 57.2083 63.8543 57.1702 65.1892 57.0968C65.7466 57.0615 66.2673 57.0262 66.8233 57.0968C66.2306 57.396 65.6351 57.6939 65.1158 58.0652C64.447 58.5113 63.8176 59.1056 63.1473 59.5898C62.477 60.0726 61.8829 60.6683 61.3269 61.3007C60.6214 62.1548 59.841 62.8988 59.0973 63.7175C58.5752 64.3133 57.9825 64.8709 57.538 65.5033C56.9073 66.3221 56.3499 67.2114 55.7558 68.1432C55.942 64.6083 56.165 61.113 56.0154 57.5414L56.0197 57.5443ZM80.27 93.3303C79.0804 93.6268 77.857 93.9628 76.6293 94.111C75.5907 94.2606 74.5126 94.2239 73.4359 94.2239C72.4679 94.2239 71.5393 94.1872 70.5741 94.111C69.4974 94.0009 68.4207 93.8894 67.3807 93.4052C66.4875 92.9958 65.5603 92.6245 64.6713 92.177C63.7767 91.7309 62.8862 91.2114 62.216 90.3926C61.7362 89.7955 61.0659 89.3127 60.4718 88.7918C60.5847 89.2379 60.8429 89.6106 61.2521 89.8703C61.0659 90.0934 60.8062 89.9833 60.4337 89.3861C60.3236 89.4609 60.2121 89.499 60.1373 89.5358C60.2502 89.2746 60.3603 89.0134 60.4718 88.7918C60.3236 88.4953 60.1373 88.1594 59.9892 87.8601C59.6928 87.3773 59.3965 86.8578 59.1354 86.3736C59.0607 86.2607 59.0606 86.1505 58.9873 86.039C58.801 85.816 58.6147 85.5915 58.4652 85.3685C58.1688 84.9238 57.9092 84.441 57.538 83.9935C57.538 84.1064 57.5761 84.2165 57.5761 84.3662C57.538 84.3662 57.5013 84.4029 57.5013 84.4029L56.7196 82.5056C56.6829 82.5056 56.6829 82.5056 56.6462 82.5423L57.3137 84.9986C57.277 84.9986 57.2403 85.0339 57.2008 85.0339C57.0921 84.8871 56.9806 84.7374 56.9044 84.5539C56.8311 84.2547 56.6081 84.2547 56.4246 84.3662C56.3118 84.441 56.237 84.7007 56.2751 84.8123C56.5361 85.4447 56.8325 86.0771 57.1302 86.7096C57.2036 86.9326 57.2784 87.1189 57.3899 87.342C57.428 87.4168 57.5394 87.4902 57.5394 87.6018C57.689 87.8982 57.8005 88.1947 57.9854 88.4572C58.3198 88.9033 58.6909 89.3494 59.0254 89.7955C59.357 90.2416 59.6533 90.7272 59.9511 91.1719C59.9878 91.2467 60.0992 91.2467 60.1345 91.2848C60.3222 91.8424 60.953 92.2504 61.3989 92.0274C61.5118 92.8828 62.4389 93.1807 62.81 93.9995C62.3641 93.8131 62.0311 93.6649 61.7333 93.5153C61.6952 93.552 61.6952 93.5887 61.6571 93.6635C62.1031 93.8865 62.549 94.1096 62.9554 94.3693C63.3293 94.5952 63.7005 94.8168 64.0349 95.0752C64.4808 95.4846 65.0015 95.7104 65.6295 95.8573C65.5956 95.7443 65.5589 95.7062 65.5589 95.7062C66.5975 96.1904 67.6756 96.7113 68.4913 97.1179C64.629 97.1941 60.5071 97.2689 56.2356 97.3438C56.2356 96.6379 56.1989 95.9674 56.1989 95.2601C56.1989 94.9637 56.2722 94.7025 56.2341 94.4046C56.1213 92.6965 56.1213 90.9827 55.8997 89.3085C55.6782 87.5241 55.6782 85.775 55.7163 83.9864C55.7515 83.0223 55.6782 82.0186 55.6401 81.0501C55.6401 79.7486 55.6401 78.4809 55.6796 77.1821C55.6796 76.9958 55.7544 76.8476 55.8292 76.6598H55.942C55.9773 76.736 55.942 76.8476 56.0126 76.8857C56.1255 76.9986 56.3118 77.1821 56.3866 77.1454C56.6081 76.9958 56.9425 76.849 57.0173 76.6231C57.2008 76.1784 57.277 75.6942 57.277 75.2481C57.277 74.915 57.4266 74.6919 57.5733 74.4675C57.6495 74.3545 57.6862 74.2444 57.761 74.0962C57.6128 73.9833 57.4647 73.9099 57.2784 73.7616C57.428 73.3523 57.3913 72.868 57.9487 72.6464C58.0221 72.6083 58.0221 72.4205 58.0616 72.3104C58.0968 72.0097 58.1321 71.6752 58.1716 71.3787C58.245 71.4917 58.2845 71.527 58.3551 71.6004C58.3946 71.527 58.4313 71.4874 58.4313 71.4874C58.4313 71.3406 58.3946 71.0427 58.4313 71.0427C58.8772 70.9679 58.6909 70.4851 58.9139 70.2621C58.9492 70.2226 58.8758 70.111 58.8758 70.0362C58.8758 69.9628 58.8758 69.8527 58.9125 69.8527C59.4304 69.7398 59.357 69.1822 59.6914 68.921C59.8043 68.8462 59.8396 68.7375 59.9878 68.5497C60.2841 69.0692 59.7648 69.3304 59.7281 69.7017C60.3575 69.3304 60.5438 68.4382 60.1726 68.177C60.3208 68.0641 60.469 67.9173 60.5819 67.7676C60.9911 67.3216 61.4342 66.9122 61.8067 66.4661C62.0678 66.1329 62.216 65.7235 62.4756 65.389C62.6252 65.2026 62.9215 65.0544 63.1445 64.9415C63.8134 64.5716 64.4427 64.1622 64.852 63.5298C64.9267 63.455 65.0382 63.3816 65.1483 63.3067C65.2612 63.2319 65.4841 63.2319 65.5208 63.1204C65.5589 63.047 65.4475 62.8606 65.3727 62.7491C65.5194 62.6743 65.669 62.5261 65.9653 62.3764C65.8524 62.5995 65.8172 62.7491 65.7424 62.8988L65.9258 63.0823C66.2617 62.8225 66.781 62.5261 67.1154 62.303C67.1154 62.2677 66.9291 62.1195 66.9291 62.1195C66.7076 62.2324 66.3732 62.416 66.0401 62.5656C66.1107 62.4527 66.1107 62.3793 66.153 62.3426C66.6709 62.008 67.1902 61.6734 67.7476 61.4109C69.0458 60.8179 70.3469 60.2222 71.6466 59.6646C71.8695 59.5517 72.1687 59.6279 72.4269 59.6279C72.537 59.6279 72.6104 59.6279 72.7233 59.5912C73.3159 59.4049 73.9114 59.2185 74.5055 59.0689C74.7638 58.9955 75.0601 58.9588 75.324 58.9588C76.4346 58.9941 77.5494 58.9941 78.6627 59.0689C79.1453 59.1056 79.5913 59.2171 80.0372 59.3653C80.5932 59.5531 81.1873 59.8128 81.708 60.0712C82.3387 60.41 82.9328 60.7798 83.5283 61.1892C84.605 61.8951 85.6069 62.6771 86.6836 63.3096C87.7236 63.942 88.5407 64.7975 89.2096 65.7659C90.028 66.9178 90.9551 67.9596 91.3263 69.3727L91.8823 71.8291C91.9951 72.2751 92.2548 72.7212 92.1433 73.2407C91.9556 74.1724 91.8075 75.1394 91.6593 76.0697C91.5859 76.4438 91.5111 76.8179 91.5492 77.185C91.6198 78.3425 91.1753 79.3448 90.7308 80.3867C90.5812 80.7212 90.3582 81.0572 90.1734 81.4285C90.2101 81.4652 90.433 81.5781 90.4697 81.5781L90.8042 80.909C90.8423 80.909 90.8423 80.909 90.8789 80.9471C90.6927 81.4666 90.5445 82.0256 90.3568 82.5465C89.9137 83.6999 89.4678 84.8899 88.9104 86.0051C88.6141 86.6376 88.0919 87.1585 87.7222 87.7556C87.3525 88.2751 87.0548 88.8327 86.6836 89.3169C86.3492 89.7263 86.0162 90.1357 85.5688 90.4322C84.5669 91.1761 83.5269 91.9201 82.4502 92.5158C81.7828 92.9252 81.0024 93.1482 80.2601 93.3346L80.27 93.3303ZM60.476 91.354L60.4393 91.3921C60.3617 91.3554 60.2502 91.3187 60.1769 91.2439L59.285 89.9028C59.2116 89.7927 59.1721 89.6812 59.2116 89.5329C59.6209 90.1654 60.0301 90.7611 60.4746 91.354H60.476ZM83.5763 96.4502C85.2457 95.7443 86.6201 94.742 87.8803 93.5873C88.068 93.4009 88.2528 93.216 88.4758 93.0649C90.0365 92.0994 91.1852 90.7597 92.2266 89.2718C93.4147 87.5608 94.1951 85.6268 95.1617 83.8043C95.2351 83.6547 95.3085 83.5079 95.3833 83.3949C95.3085 87.6356 95.7925 91.8015 96.3485 96.0055C92.1532 96.1537 87.8817 96.3019 83.5749 96.4516L83.5763 96.4502ZM121.23 95.3349C121.193 95.4097 121.117 95.4846 121.081 95.5608C121.043 95.4846 121.043 95.373 121.007 95.222C120.784 95.8191 120.301 95.5213 119.967 95.5213C117.963 95.5594 115.92 95.5594 113.913 95.5594C111.982 95.5594 110.015 95.5594 108.085 95.5933C107.453 95.5933 106.784 95.7415 106.152 95.7796C104.63 95.853 103.108 95.8925 101.585 95.9278C101.472 95.9278 101.362 95.7443 101.176 95.5947C101.139 95.6695 101.063 95.781 100.953 95.9292C100.914 95.8558 100.84 95.7824 100.765 95.6709C100.729 95.7838 100.691 95.894 100.652 95.9674H100.545C100.47 95.4479 100.322 94.9651 100.322 94.4427C100.322 93.3275 100.435 92.2123 100.47 91.0942C100.509 90.5747 100.47 90.0919 100.47 89.6063C100.62 89.7193 100.731 89.7941 100.88 89.9028C100.953 89.7574 101.028 89.6459 101.103 89.5358C101.103 89.5358 101.028 89.4962 100.953 89.4228C101.024 89.3847 101.1 89.3099 101.1 89.2732C101.136 89.1602 101.213 89.0501 101.213 88.9767C101.213 88.7156 101.136 88.4925 101.1 88.2709C101.136 88.2709 101.173 88.2709 101.213 88.2314L101.434 89.3466H101.547C101.398 89.0882 101.88 88.8638 101.472 88.5673C101.436 88.5292 101.509 88.3062 101.509 88.1947C101.396 87.973 101.326 87.75 101.213 87.4521C101.249 87.4154 101.361 87.3773 101.472 87.3392C101.324 87.2658 101.213 87.1924 101.101 87.1557C101.472 86.8197 101.472 86.6333 101.138 86.2621C101.214 86.2268 101.287 86.2268 101.287 86.1915C101.287 85.8555 101.287 85.5209 101.214 85.1892C101.139 84.8137 101.327 84.3704 100.768 84.1445C100.805 84.2575 100.843 84.3309 100.916 84.441C100.916 84.441 100.803 84.4791 100.693 84.5539C100.211 84.1064 100.51 83.5093 100.397 82.8416C100.657 82.9164 100.843 82.9912 101.028 83.0674C100.953 82.8049 100.768 82.507 100.657 82.1724H100.506V79.7161C100.506 79.7542 100.765 79.7542 100.915 79.7923C100.915 79.7542 100.95 79.7175 100.95 79.6794C100.837 79.5312 100.689 79.3829 100.541 79.1966L100.616 79.1218C100.319 78.7519 100.468 78.2324 100.468 78.1195V75.5149C100.84 75.8876 100.284 76.3704 100.84 76.5935V76.2222H100.802C100.765 75.6646 100.765 75.107 100.729 74.5479H100.655C100.617 74.6242 100.617 74.6609 100.579 74.7357H100.506L100.729 65.8449C101.1 66.3277 101.508 66.7766 101.767 67.2566C102.622 68.8208 103.736 70.1604 104.776 71.5735C105.668 72.8017 106.483 74.14 107.302 75.4048C108.304 76.9294 109.269 78.4541 110.272 79.9787C111.014 81.1334 111.796 82.2868 112.572 83.4034C113.278 84.4057 114.023 85.3741 114.765 86.3425C115.395 87.198 116.063 88.0535 116.694 88.909C117.438 89.9508 118.18 90.9912 118.924 91.9963C119.294 92.5158 119.703 93.0367 120.109 93.5576C120.335 93.8541 120.668 94.0799 120.891 94.2635C120.856 94.2635 120.818 94.2635 120.744 94.2268C120.857 94.375 120.928 94.4865 121.004 94.5613C121.413 94.7844 121.45 95.0074 121.227 95.3434L121.23 95.3349ZM123.123 86.0376V85.7764C123.123 85.8499 123.16 85.96 123.123 86.0362V86.0376ZM124.386 69.6339C124.348 69.6339 124.127 69.408 124.09 69.3713C124.052 69.4843 124.09 69.5944 124.015 69.744C123.977 69.6339 123.719 69.6706 123.719 69.5605C123.681 70.08 123.94 70.6009 123.902 71.1218C124.015 71.047 124.46 71.0089 124.571 70.8988C124.609 70.9355 124.684 70.9722 124.721 70.9722C123.977 71.5312 124.163 72.0874 124.498 72.7226C124.571 72.8695 124.794 73.1673 124.571 73.4652C124.498 73.54 124.609 73.7616 124.646 73.9494H124.755V74.02L124.42 74.1329C124.347 74.02 123.902 73.7998 123.902 73.6106V75.5107C124.273 75.6236 124.273 76.1431 124.422 76.4043C124.499 76.2914 124.535 76.2165 124.573 76.1079L124.611 76.1417C124.573 76.3648 124.536 76.5878 124.461 76.8123C124.388 77.1454 124.313 77.4433 124.278 77.7779C124.278 77.8146 124.348 77.8908 124.348 77.9261C123.942 78.8578 124.165 79.8968 124.017 80.8624C123.904 81.5682 124.017 82.3164 123.942 83.059C123.866 83.6914 123.716 84.3605 123.569 84.993C123.531 85.1059 123.456 85.1412 123.273 85.216C123.346 84.7699 123.31 84.4721 123.235 84.0627C123.195 84.0627 122.713 83.8029 122.675 83.8029C122.675 84.3252 122.971 85.0311 123.084 85.624C122.971 85.5873 122.526 85.3275 122.491 85.3275C122.415 85.7736 122.415 86.3694 122.378 86.8521C122.34 87.2248 122.007 87.558 121.969 87.9674C121.969 88.1932 122.229 88.3401 122.192 88.7127H122.488C122.488 87.9702 122.824 87.3011 122.824 86.519H122.934C122.972 86.5938 123.084 86.6686 123.047 86.7053C122.972 87.1147 122.821 87.5608 122.861 87.9702C122.861 88.1932 123.044 88.4163 122.974 88.676C122.898 88.9019 122.861 89.1235 122.823 89.4581C122.785 89.2718 122.748 89.1984 122.748 89.0868C122.711 89.0868 122.377 89.0487 122.339 89.0487C122.302 89.2718 122.6 89.4948 122.562 89.6812C122.525 89.7179 122.488 89.7179 122.414 89.756L121.189 87.9688C120.221 86.5571 119.255 85.1412 118.29 83.6914C118.029 83.3187 117.806 82.9474 117.62 82.5762C116.47 80.6026 115.207 78.7053 113.796 76.8829C112.72 75.5079 111.863 74.0172 110.861 72.5702C109.935 71.1938 109.006 69.8541 108.078 68.4763C107.743 68.0316 107.336 67.6222 107.038 67.138C106.074 65.6134 105.217 64.0507 104.255 62.5261C103.437 61.2598 102.548 60.0316 101.692 58.8049C101.396 58.3955 101.1 57.948 100.801 57.5019C100.764 57.4313 100.727 57.3565 100.727 57.245C100.652 56.4262 100.578 55.6074 100.541 54.8268C100.541 54.0828 100.616 53.3389 100.616 52.5568V51.8877C100.616 51.7013 100.651 51.5531 100.651 51.3653C100.686 51.33 100.724 51.2552 100.761 51.2185C99.6844 51.2185 98.5696 51.179 97.4929 51.2185C96.7874 51.2538 96.4162 50.956 95.9336 50.435C94.5225 48.8356 93.4825 47.0131 92.2576 45.3022C91.1061 43.6646 89.918 42.0638 88.7298 40.4643C87.7632 39.1628 86.7965 37.8979 85.8327 36.5963C84.7546 35.1084 83.716 33.6205 82.6012 32.1326C81.2635 30.3483 79.889 28.5611 78.516 26.7767C77.881 25.9579 77.1754 25.1773 76.4698 24.3204C76.9539 24.3966 77.4012 24.47 77.8457 24.5081L79.6294 24.6211C80.9657 24.7298 82.3021 24.8046 83.637 24.9881C84.7518 25.1392 85.8666 25.3622 87.0181 25.5471C89.4706 25.9565 91.8837 26.6271 94.2233 27.4077C95.5978 27.8538 96.9327 28.4495 98.2733 29.0072C101.279 30.2353 104.139 31.7232 106.962 33.2845C107.851 33.7688 108.373 34.5494 109.039 35.2567C110.005 36.2618 110.972 37.2655 111.899 38.3059C112.974 39.5341 113.976 40.7989 115.018 42.0638C115.945 43.179 116.909 44.2942 117.84 45.4123C118.136 45.7469 118.362 46.1562 118.619 46.5275C119.212 47.4211 119.882 48.278 120.401 49.2436C120.771 49.9522 120.994 50.771 121.254 51.5517C121.623 52.705 121.996 53.8203 122.368 54.9736C122.627 55.8291 122.848 56.7241 123.034 57.6134C123.184 58.2106 123.147 58.8416 123.331 59.4345C123.557 60.2194 123.331 61.0721 123.557 61.8555C123.592 61.9304 123.627 62.0419 123.667 62.1167C123.815 62.2635 123.926 62.4131 123.703 62.6362C123.668 62.6729 123.668 62.8197 123.703 62.9326C123.78 62.8592 123.816 62.7844 123.891 62.6729C123.891 62.7477 123.926 62.7858 123.926 62.8211C123.926 62.9679 123.888 63.1176 123.926 63.2658C123.926 63.3392 124 63.4493 124.036 63.5255C124.111 63.4493 124.185 63.4126 124.333 63.2997C124.667 64.566 124.705 65.8308 124.705 67.1324C124.705 68.3606 124.927 69.5887 124.409 70.7788C124.519 70.3694 124.259 69.9953 124.371 69.624L124.386 69.6339Z" fill="#DD3A0A"/>
<path fill-rule="evenodd" clip-rule="evenodd" d="M100.658 84.1007C100.693 84.1007 100.731 84.1389 100.731 84.1389L100.693 84.0965C100.693 84.0612 100.693 84.0612 100.657 84.0965L100.658 84.1007ZM106.524 120.855C106.115 121.152 105.706 121.413 105.186 121.524C105.147 121.488 105.147 121.45 105.11 121.411C105.519 121.152 105.964 120.892 106.373 120.631C106.411 120.701 106.486 120.778 106.523 120.852L106.524 120.855ZM36.8959 70.447C37.3052 69.9289 37.7144 69.408 38.1575 68.8871C38.1928 68.9238 38.4891 69 38.5272 69.0353C38.118 69.5576 37.5606 70.2635 37.1528 70.8211C37.0766 70.7463 36.9651 70.4865 36.8917 70.4484L36.8959 70.447ZM26.3477 88.6788C26.0514 88.0464 25.755 87.3758 25.4587 86.7448C25.4954 86.7067 25.755 86.5952 25.7917 86.5952C26.2009 87.1881 26.3844 87.8939 26.6835 88.5292C26.6835 88.5292 26.3872 88.6774 26.3491 88.6774L26.3477 88.6788ZM35.8192 70.8211C35.5963 71.1571 35.3733 71.5297 35.1504 71.8657C35.1137 71.8262 34.7044 72.0125 34.6678 71.9758C34.8907 71.6413 35.4467 71.0441 35.6697 70.711C35.7078 70.7477 35.7444 70.7858 35.8192 70.8239V70.8211ZM102.552 122.383C102.587 122.383 102.587 122.346 102.625 122.346C102.885 122.383 103.181 122.419 103.479 122.419C102.994 122.754 102.696 122.716 102.548 122.383H102.552ZM35.8898 72.3838C35.9293 72.2709 36.0027 72.1608 36.0775 72.0492C36.1509 72.0492 36.2609 72.0111 36.2609 72.0111C36.4119 71.7514 36.4119 71.565 36.5601 71.342C36.5234 71.3053 36.4853 71.3053 36.4472 71.2672C36.2256 71.4196 36.0027 71.606 35.7797 71.7542C35.8545 71.8276 35.8545 71.8671 35.8545 71.9405C35.5582 71.9024 35.4453 72.0535 35.2971 72.46C35.2604 72.573 35.0742 72.6097 34.8879 72.7565C34.8512 72.8327 34.8145 73.0191 34.7397 73.204L34.7778 73.2435C34.703 73.3183 34.5915 73.3565 34.5915 73.3565C34.3686 73.5781 34.1089 73.7658 33.886 73.9875C33.8493 74.1004 33.8126 74.2105 33.8126 74.322C34.0737 74.0623 34.5182 73.5781 34.8526 73.2802L34.8907 73.3183C35.0389 73.0953 35.1504 72.8723 35.2999 72.6492C35.3352 72.6859 35.3352 72.7226 35.3733 72.7621C35.2604 73.0586 35.1504 73.3917 35.0389 73.6896C34.9613 73.7263 34.8498 73.8026 34.8498 73.7644C34.7016 73.8774 34.5901 74.0242 34.4406 74.1357L33.7731 74.5818C33.402 74.9164 33.0308 75.2128 32.6216 75.5488C32.362 75.9582 32.1023 76.3295 31.8031 76.8137C32.2505 76.7007 32.362 76.8885 32.3253 77.2612C32.8446 77.3346 32.8827 76.9266 33.0308 76.6287C33.0675 76.5525 33.1056 76.4029 33.179 76.3662C33.5134 76.0697 33.8846 75.81 34.2557 75.5121C34.3305 75.4373 34.3305 75.2862 34.3305 75.1761C34.3305 75.1394 34.1428 75.1394 34.0313 75.1013C34.3658 74.7286 34.8498 74.099 35.1828 73.6896C35.3691 73.5767 35.5539 73.427 35.5539 73.3155C35.5173 72.9061 35.7769 72.796 36.0761 72.6464C35.9265 72.5335 35.8884 72.4248 35.8884 72.388L35.8898 72.3838Z" fill="#DD3735"/>
<path fill-rule="evenodd" clip-rule="evenodd" d="M36.6349 71.9744C36.4867 72.2342 36.3386 72.4572 36.1904 72.7184L35.9674 72.6054C35.8193 73.4595 35.2986 74.2035 34.7793 74.3517C34.9274 74.4265 35.0756 74.5013 35.1885 74.4646C35.2986 74.4265 35.3719 74.2388 35.4467 74.1287L36.4486 72.6774L36.7845 72.1184L36.6363 71.9702L36.6349 71.9744ZM24.2705 88.3047C24.4568 88.3047 24.6431 88.3414 24.8632 88.3414C24.8632 88.1932 25.0509 88.2285 25.0509 88.0817H25.1638C25.1638 88.268 25.2005 88.4163 25.2005 88.604H24.4215C24.3834 88.5659 24.2353 88.3414 24.2719 88.3047H24.2705ZM23.9742 86.5938C23.8613 86.4809 23.6779 86.3707 23.6779 86.2592C23.6398 86.1124 23.7512 85.9275 23.8613 85.7411C23.9375 86.0009 23.9742 86.2239 24.0476 86.4851C24.0095 86.5204 23.9728 86.5585 23.9728 86.5952L23.9742 86.5938ZM24.9027 84.2123C25.0509 84.5878 25.1991 84.9972 25.3486 85.3699C25.3119 85.3699 25.089 85.4828 25.0523 85.5181C24.9041 85.1454 24.7179 84.736 24.5697 84.3647C24.6064 84.328 24.8293 84.2151 24.9041 84.2151L24.9027 84.2123ZM107.567 119.778C107.75 119.705 107.973 119.665 108.273 119.595C107.937 119.853 107.677 120.039 107.454 120.262C107.416 120.226 107.379 120.188 107.341 120.188C107.416 120.039 107.491 119.928 107.567 119.778ZM61.9225 41.1744C62.144 41.0248 62.3317 40.9132 62.5532 40.765L62.6266 40.8384C62.4008 41.1349 62.2174 41.4313 61.9563 41.8054C61.9196 41.5471 61.9196 41.396 61.8815 41.2125C61.8448 41.2125 61.8815 41.2125 61.9196 41.1758L61.9225 41.1744ZM72.8023 59.9963C73.1367 59.8467 73.4712 59.6999 73.879 59.5121C73.8423 59.7352 73.8423 59.8848 73.8423 60.0344C73.7294 59.9963 73.5813 59.9582 73.4698 59.9582C73.2468 59.9963 72.8376 60.2942 72.6513 60.3309C72.616 60.3309 72.8009 60.0344 72.8009 59.9963H72.8023ZM100.658 91.5417C100.732 91.913 101.437 92.0993 100.731 92.4706C100.844 92.5482 100.953 92.5835 101.065 92.6598C101.065 92.6979 101.028 92.7727 100.991 92.8094C100.916 92.8447 100.768 92.9195 100.695 92.88C100.657 92.88 100.582 92.7332 100.582 92.6584C100.582 92.3238 100.62 91.9892 100.657 91.5431L100.658 91.5417Z" fill="#DD3735"/>
</svg>
